PathFileType	4	(X/Y/Z)	C:\Github\BTS_project\Data\sports2d_results\test6 Exam_2026-03-06_143334_tvc4_Sports2D\test6 Exam_2026-03-06_143334_tvc4_Sports2D_px_person00.trc
DataRate	CameraRate	NumFrames	NumMarkers	Units	OrigDataRate	OrigDataStartFrame	OrigNumFrames
30.0	30.0	17	22	m	30.0	82	220
Frame#	Time	Hip			RHip			RKnee			RAnkle			RBigToe			RSmallToe			RHeel			LHip			LKnee			LAnkle			LBigToe			LSmallToe			LHeel			Neck			Head			Nose			RShoulder			RElbow			RWrist			LShoulder			LElbow			LWrist			
		X1	Y1	Z1	X2	Y2	Z2	X3	Y3	Z3	X4	Y4	Z4	X5	Y5	Z5	X6	Y6	Z6	X7	Y7	Z7	X8	Y8	Z8	X9	Y9	Z9	X10	Y10	Z10	X11	Y11	Z11	X12	Y12	Z12	X13	Y13	Z13	X14	Y14	Z14	X15	Y15	Z15	X16	Y16	Z16	X17	Y17	Z17	X18	Y18	Z18	X19	Y19	Z19	X20	Y20	Z20	X21	Y21	Z21	X22	Y22	Z22
82	2.7458143074581427	21.58798659182607	683.6597888155733	0.0	-71.46388753323049	766.762048105214	0.0																-156.2561655714722	764.8820025719967	0.0																19.350009122547938	599.8816918862938	0.0	23.403122966670814	554.5037035549718	0.0	-2.8848194185177354	583.4501285156516	0.0	40.39786259915835	615.0665255206939	0.0	-8.885028329600322	683.4554775556412	0.0				7.095021449729796	617.0940035584782	0.0	-196.427213882564	667.7250223354371	0.0			
83	2.7792998477929984	21.40611036563021	685.9179603517944	0.0	-63.99157539835157	765.129975843131	0.0																-144.3759907444543	763.3842192768445	0.0																19.68411774812544	599.9338413547264	0.0	23.317425538529903	554.7756887865231	0.0	-2.504330592411164	583.1728272357024	0.0	40.85979095066049	614.8856962653892	0.0	-4.997206392549248	682.8582208555359	0.0				6.810158630778653	617.2192701346004	0.0	-182.22725466006779	667.7017933857442	0.0			
84	2.8127853881278537	21.224325698953557	688.1761149524943	0.0	-56.51926326087652	763.497903582065	0.0																-132.4958159138936	761.8864359828357	0.0																20.039137488529292	599.9804216102182	0.0	23.22279420148862	555.0625021147259	0.0	-2.0987681317161626	582.8772964567802	0.0	41.32152060014122	614.7091754265637	0.0	-1.1093844537671111	682.2609641552164	0.0				6.515062118830967	617.336444784796	0.0	-168.02729542962422	667.6785644373774	0.0			
85	2.846270928462709	21.042909787520188	690.4342013412659	0.0	-49.04695113106301	761.8658313307656	0.0																-120.61564107224696	760.3886526975432	0.0																20.385304389086784	600.0297578960653	0.0	23.13260305937671	555.3434396544484	0.0	-1.7031854677970497	582.5903570819064	0.0	41.78363362965166	614.5289905785535	0.0	2.778437481883725	681.6637074543166	0.0				6.223714335894289	617.4578356509448	0.0	-153.82733618103867	667.6553354750415	0.0			
86	2.8797564687975648	20.86172218074184	692.6922454931096	0.0	-41.57463902896571	760.2337590927025	0.0																-108.73546622777245	758.8908694228614	0.0																20.728149482176217	600.0849381399886	0.0	23.04497610358211	555.6330224594193	0.0	-1.3017025447997639	582.3161723930335	0.0	42.247484882482915	614.3198889081561	0.0	6.666259402785176	681.0664507534159	0.0				5.913259772676347	617.5911371693131	0.0	-139.62737693880268	667.6321064795725	0.0			
87	2.91324200913242	20.67908223687053	694.9505582864567	0.0	-34.10232694004586	758.6016868297411	0.0																-96.85529143457569	757.3930861236909	0.0																21.073922404284012	600.145402619057	0.0	22.954927716547285	555.9403199398083	0.0	-0.8839044784877963	582.0511169704222	0.0	42.71265850659766	614.0749292963387	0.0	10.554081311843845	680.4691940554752	0.0				5.571111631149434	617.7365831771117	0.0	-125.42741780119754	667.6088774929159	0.0			
88	2.9467275494672753	20.49253564545986	697.2095937353861	0.0	-26.63001473445113	756.9696144521997	0.0																-84.97511675258755	755.8953027241193	0.0																21.4053444074331	600.1945165914606	0.0	22.862983754475753	556.2076339028231	0.0	-0.5122849700629747	581.767752201446	0.0	43.17145076881054	613.9099751709279	0.0	14.44190327387658	679.8719373631266	0.0				5.290776246275691	617.8555775094759	0.0	-111.2274588286168	667.5856486920941	0.0			
89	2.9802130898021306	20.306033605497035	699.4686210109099	0.0	-19.157702241381898	755.3375419855822	0.0																-73.09494201859573	754.3975192601399	0.0																21.688171197998454	600.1967427946196	0.0	22.7826370035446	556.3038162766061	0.0	-0.31947036594970324	581.4084855316141	0.0	43.611447505571924	614.079121706277	0.0	18.329725396356856	679.2746806662146	0.0				5.2932258510584616	617.864674754902	0.0	-97.02749963312345	667.5624201969605	0.0			
90	3.013698630136986	20.139566272993726	701.7239423740248	0.0	-11.685389801654626	753.7054699360106	0.0																-61.2147666185419	752.899736187347	0.0																21.919287361945152	600.1312073060781	0.0	22.74094007053597	556.1523653854414	0.0	-0.3610521822567752	580.9373518396105	0.0	44.03401609810636	614.7284713034361	0.0	22.21754755109037	678.677423932133	0.0				5.729417280142969	617.7151689115672	0.0	-82.82753917421391	667.5391913296685	0.0			
91	3.0471841704718416	20.01067928251644	703.9723119830187	0.0	-4.2130789306769065	752.0733991283504	0.0																-49.334590227125126	751.4019541816895	0.0																22.13763807233975	600.0186406278034	0.0	22.751558885134344	555.8302141691518	0.0	-0.5348208661760258	580.3855933724035	0.0	44.45611634619465	615.7064312550029	0.0	26.105368947309238	678.0801671512115	0.0				6.494432493465466	617.4560599772408	0.0	-68.62757746946852	667.5159601989676	0.0			
92	3.080669710806697	19.850396740848154	706.2264883218452	0.0	3.2592292522941086	750.4413285345364	0.0																-37.45441536636313	749.9041721921152	0.0																22.313637074043235	599.8952347344839	0.0	22.731207687454447	555.4663635060763	0.0	-0.7911449857851771	579.8204036681838	0.0	44.8584108294891	616.7684175991583	0.0	29.993188747409192	677.4829104717179	0.0				7.288691886638585	617.1708299778677	0.0	-54.427619865751225	667.4927266975014	0.0			
93	3.1141552511415522	19.438950198849827	708.5271241589603	0.0	10.731540374035836	748.8092520020297	0.0																-25.57424845686184	748.4063847832006	0.0																22.250227253847054	599.7789839826773	0.0	22.43923167863602	555.1141989535229	0.0	-1.3463338626723809	579.2989657654159	0.0	45.14009766084918	617.8310712934399	0.0	33.88100940905904	676.8856542228344	0.0				7.747567996761715	616.8970205586298	0.0	-40.227676363445674	667.4695002809942	0.0			
94	3.147640791476408	18.713859658098652	710.8857805020343	0.0	18.203870768811836	747.1771631704304	0.0																-13.694088735515777	746.9085870652154	0.0																21.885487519131285	599.6694077624395	0.0	21.808657188987564	554.7683441191284	0.0	-2.2834101315870714	578.8284868272146	0.0	45.27027424664479	618.9107176874948	0.0	37.76883984768315	676.2883982685861	0.0				7.801322023990305	616.6321679672682	0.0	-26.02773852886517	667.4462993417659	0.0			
95	3.1811263318112633	18.679540834358168	713.1166670530442	0.0	25.676222526240704	745.5450814569582	0.0																-1.8139019732316437	745.4107975685135	0.0																22.194398585655	599.5545336686889	0.0	21.921530746746257	554.4432108753618	0.0	-2.3431937999907455	578.2608086324972	0.0	45.737965587002726	619.8857139051834	0.0	41.65668433681287	675.6911406712916	0.0				8.69032879201197	616.3696613877528	0.0	-11.827739376262638	667.4231102994024	0.0			
96	3.2146118721461185	21.550520323874792	714.8101353310374	0.0	33.14851617316848	743.9130759857608	0.0																10.066372527272863	743.9130762331441	0.0																25.333571050586023	599.4146427960211	0.0	25.161702978176354	554.1950514619462	0.0	1.2762089009882935	577.2801959291742	0.0	47.62400659961292	620.4400751561673	0.0	45.54450541143871	675.0938784687196	0.0				13.108852033058739	616.1106012236816	0.0	2.37240443486874	667.3998135993775	0.0			
97	3.248097412480974	28.622525245309568	715.7264661446535	0.0	40.62059106301414	742.2811780415864	0.0																21.9466745063506	742.4154415414607	0.0																32.56571191788152	599.2391153117812	0.0	32.923590592633836	554.0600974539907	0.0	10.217666485160523	575.7035352948843	0.0	51.561106130495595	620.3822524236191	0.0	49.432210546411284	674.4966159662232	0.0				22.627602959695608	615.8578104992891	0.0	16.57250809224966	667.3762529812157	0.0			
98	3.281582952815829	38.599623133596616	716.1053675693519	0.0	48.09254989358432	740.6490936563173	0.0																33.8265802754704	740.917622267457	0.0																42.6284342989744	599.0391323026859	0.0	43.812576550414136	554.0043349606947	0.0	22.840066261826966	573.7145448470495	0.0	56.91670864695943	619.8994454526761	0.0	53.319816463747706	673.899376416161	0.0				35.67149364246641	615.6099319455031	0.0	30.77179722644048	667.3527441090786	0.0			
